<?xml version="1.0" encoding="UTF-8"?>
<!DOCTYPE svg PUBLIC "-//W3C//DTD SVG 1.0//EN" "http://www.w3.org/TR/2001/REC-SVG-20010904/DTD/svg10.dtd">
<svg xmlns="http://www.w3.org/2000/svg" viewBox="0 0 30 30"
  width="300" height="300"
  xmlns:xlink="http://www.w3.org/1999/xlink">
    <desc>Peas in a box</desc>
<defs>
<!-- Variant for Google Apps at 143 x 59 -->
  <circle id="pea" r="2.5" cx="3" cy="-3"
      fill="lightgreen" stroke-width="1"/>
  
  <!--<path id="stem" d="M -1 -1 L 0 0 L -2 0 L 0 0 L -1 1" fill="none"/>-->

  <g id="pod">
    <!--<circle cx="0" cy="0" r="1" fill="red"/>-->
    <!--<path d="M -2 0 c -55 10 -15 -15 0 0 z" fill="lightgreen"/>-->
    
    <path d="M 0 0 C -5 1 -16 2 -30  0
      C -26 1.5  -26  3 -22 5
      C -18 7  1  11   0  0
      z " fill="lightgreen"/>
    <use xlink:href="#pea" x="-7.5" y="6.5"/>
    <use xlink:href="#pea" x="-13" y="7.25"/>
    <use xlink:href="#pea" x="-18" y="7"/>
    <circle r="2" cx="-20" cy="3.25"
      fill="lightgreen" stroke-width="1"/>
    <circle r="1.4" cx="-23.75" cy="2.15"
      fill="lightgreen" stroke-width="1"/>
    <path id="stem" d="M 0 0 L 1 -1 M 0 0 L 2 0 M 0 0 L 1 1"
      transform="rotate(-18)"
      fill="none" stroke-linecap="round"/>
  </g>
  
</defs>

  <!--<rect width="100%" height="100%" fill="pink" />-->
  
  <g  transform="translate(0 30)" stroke="forestgreen" 
  >

    
    <use xlink:href="#pod" transform="translate(18 -27) rotate(-60)"/>
    
    <use xlink:href="#pea" x="5" y="-20"/>
    <use xlink:href="#pea" x="0" y="-12"/>
    <use xlink:href="#pea" x="16" y="-1"/>
    <use xlink:href="#pea" x="23" y="-5"/>
<!--    <use xlink:href="#pea" x="16" y="15"/>
-->    
  </g>
  
</svg>